<?xml version="1.0" standalone="no"?>
<!DOCTYPE svg PUBLIC "-//W3C//DTD SVG 20010904//EN"
 "http://www.w3.org/TR/2001/REC-SVG-20010904/DTD/svg10.dtd">
<svg version="1.0" xmlns="http://www.w3.org/2000/svg"
 width="686.000000pt" height="373.000000pt" viewBox="0 0 686.000000 373.000000"
 preserveAspectRatio="xMidYMid meet">

<g transform="translate(0.000000,373.000000) scale(0.100000,-0.100000)"
fill="#000000" stroke="none">
<path d="M1690 3033 c-39 -27 -352 -292 -382 -324 -16 -16 -28 -41 -28 -55 0
-35 42 -74 79 -74 l31 0 2 -212 3 -213 335 0 335 0 3 213 2 212 31 0 c38 0 79
39 79 76 0 21 -14 41 -55 79 l-55 50 0 102 c0 113 0 113 -75 113 -63 0 -75 -7
-75 -46 0 -19 -3 -34 -6 -34 -3 0 -34 24 -67 54 -94 81 -114 89 -157 59z m216
-175 c92 -79 181 -155 197 -169 33 -27 32 -59 0 -59 -10 0 -96 68 -192 150
-134 116 -177 147 -190 141 -9 -5 -90 -73 -181 -150 -162 -138 -205 -163 -205
-118 0 17 377 347 396 347 4 0 83 -64 175 -142z m114 32 l0 -61 -25 18 c-19
14 -24 27 -25 61 0 38 2 42 25 42 24 0 25 -3 25 -60z m-1 -477 l1 -213 -65 0
-64 0 -3 128 -3 127 -143 5 c-79 3 -150 1 -158 -3 -11 -6 -14 -35 -14 -132 l0
-125 -65 0 -65 0 1 213 0 212 146 122 145 122 143 -122 144 -122 0 -212z
m-181 -105 l3 -108 -111 0 -110 0 0 103 c0 57 3 107 7 111 4 4 52 5 107 4
l101 -3 3 -107z"/>
<path d="M3288 2960 c-110 -59 -138 -212 -56 -306 40 -45 77 -64 128 -64 23 0
54 7 69 14 60 31 111 115 111 181 0 70 -46 142 -111 175 -48 25 -93 25 -141 0z"/>
<path d="M4940 2962 c-74 -37 -89 -125 -31 -183 61 -61 157 -42 193 38 19 42
19 44 0 86 -14 31 -30 48 -55 60 -44 21 -63 21 -107 -1z"/>
<path d="M4968 2638 l-3 -83 -37 79 -38 78 -60 -4 c-73 -5 -106 -27 -138 -89
-22 -42 -23 -52 -20 -247 3 -188 4 -205 22 -218 27 -19 42 -18 66 6 19 19 20
33 20 200 0 153 2 180 15 180 13 0 15 -29 15 -200 l0 -200 190 0 190 0 0 200
c0 171 2 200 15 200 13 0 15 -26 15 -178 0 -144 3 -182 16 -200 19 -28 48 -28
75 -1 20 20 20 29 17 227 -3 193 -5 209 -25 242 -30 49 -89 80 -150 80 l-49 0
-39 -77 -40 -78 -3 83 c-3 79 -4 82 -27 82 -23 0 -24 -3 -27 -82z"/>
<path d="M3297 2470 c-67 -12 -134 -47 -184 -96 -59 -59 -83 -111 -83 -179 l0
-55 330 0 330 0 0 55 c0 169 -198 307 -393 275z"/>
<path d="M3079 1747 c-37 -29 -39 -48 -39 -437 0 -389 2 -408 39 -437 12 -9
93 -12 302 -13 365 0 339 -14 339 177 l0 135 103 104 c56 58 106 114 111 124
21 45 -42 111 -91 96 -11 -3 -40 -26 -65 -51 -25 -24 -48 -41 -52 -38 -3 4 -6
58 -6 122 l0 115 -60 58 -59 58 -253 0 c-183 -1 -257 -4 -269 -13z m441 -117
l5 -75 73 -3 72 -3 0 -106 0 -106 -57 -59 c-56 -57 -90 -122 -92 -175 -1 -29
20 -30 95 -4 l55 20 -3 -102 -3 -102 -274 -3 c-193 -2 -278 1 -287 9 -19 16
-21 758 -2 777 9 9 65 12 213 10 l200 -3 5 -75z m105 39 c60 -55 59 -69 -5
-69 l-50 0 0 55 c0 30 2 55 5 55 3 0 26 -19 50 -41z m263 -241 c4 -23 -14 -46
-116 -143 l-83 -79 -21 22 -22 21 100 101 c99 100 134 119 142 78z m-250 -264
c-7 -6 -24 -15 -36 -19 -22 -6 -23 -5 -17 17 13 42 26 51 47 31 15 -13 16 -19
6 -29z"/>
<path d="M3150 1470 c0 -19 7 -20 205 -20 198 0 205 1 205 20 0 19 -7 20 -205
20 -198 0 -205 -1 -205 -20z"/>
<path d="M3150 1261 c0 -28 18 -31 160 -31 99 0 130 3 140 15 24 29 0 35 -151
35 -140 0 -149 -1 -149 -19z"/>
<path d="M3153 1165 c-11 -31 13 -36 158 -33 136 3 144 4 144 23 0 19 -8 20
-148 23 -127 2 -148 0 -154 -13z"/>
<path d="M3371 1011 c-8 -5 -11 -16 -8 -25 5 -13 24 -16 102 -16 94 0 96 1 93
23 -3 21 -8 22 -88 25 -47 1 -91 -2 -99 -7z"/>
<path d="M4696 1724 l-26 -27 0 -397 0 -397 26 -27 27 -26 239 0 239 0 24 25
25 24 0 401 0 401 -25 24 -24 25 -239 0 -239 0 -27 -26z m502 -56 l3 -27 -240
-1 c-227 0 -241 1 -241 18 0 40 15 42 250 40 l225 -3 3 -27z m-437 -107 c-17
-16 -31 -37 -31 -48 0 -10 16 -44 35 -76 19 -32 35 -61 35 -64 0 -3 10 -14 22
-24 25 -23 66 -24 93 -3 18 14 19 16 4 42 -12 21 -22 26 -46 25 -26 -2 -32 2
-48 37 -18 39 -18 41 1 54 18 14 18 16 1 50 l-17 36 190 0 190 0 0 -265 0
-265 -235 0 -235 0 0 265 0 265 36 0 36 0 -31 -29z m59 -10 c13 -25 13 -34 0
-26 -16 10 -32 45 -21 45 6 0 15 -9 21 -19z m-24 -51 c2 -48 26 -87 60 -100
13 -5 24 -11 24 -14 0 -2 3 -11 6 -20 9 -22 -28 -21 -55 2 -27 23 -71 107 -71
137 0 69 32 64 36 -5z m114 -134 c0 -5 -7 -1 -15 10 -8 10 -14 24 -14 29 0 6
6 1 14 -9 8 -11 15 -24 15 -30z m288 -408 l-3 -53 -224 -3 c-156 -2 -228 1
-237 9 -8 7 -14 30 -14 55 l0 44 241 0 240 0 -3 -52z"/>
<path d="M4970 1293 c-27 -24 -33 -38 -38 -81 -4 -49 -2 -54 31 -87 30 -30 42
-35 82 -35 40 0 52 5 81 34 45 45 48 105 6 155 -23 28 -36 34 -78 38 -46 5
-55 2 -84 -24z m127 -15 c44 -31 53 -75 23 -122 -61 -100 -214 -9 -154 92 32
54 79 65 131 30z"/>
<path d="M5012 1269 c3 -8 15 -13 30 -11 14 2 33 -4 42 -13 18 -18 22 -55 6
-55 -5 0 -10 11 -10 25 0 21 -5 25 -29 25 -32 0 -47 -23 -35 -54 5 -13 17 -16
53 -14 43 3 46 5 49 33 4 43 -17 65 -67 72 -35 5 -43 3 -39 -8z m48 -57 c0
-13 -12 -22 -22 -16 -10 6 -1 24 13 24 5 0 9 -4 9 -8z"/>
<path d="M4980 1241 c-16 -31 -12 -58 14 -85 27 -30 76 -35 97 -10 12 15 10
16 -27 10 -65 -11 -87 21 -59 87 10 24 -12 22 -25 -2z"/>
<path d="M1676 1680 c-157 -40 -287 -183 -318 -349 -23 -121 25 -263 118 -357
254 -254 689 -88 712 272 11 178 -80 329 -245 406 -51 24 -80 31 -146 34 -45
2 -99 -1 -121 -6z m250 -100 c291 -143 239 -568 -79 -646 -117 -29 -235 5
-321 93 -159 160 -123 426 72 541 105 61 221 65 328 12z"/>
<path d="M1740 1520 l-105 -5 -3 -112 -3 -112 -42 -3 c-41 -3 -42 -4 -45 -40
l-3 -38 45 0 c42 0 46 -2 46 -25 0 -23 -4 -25 -45 -25 -43 0 -45 -1 -45 -30 0
-29 2 -30 44 -30 l45 0 3 -42 c3 -42 4 -43 40 -46 37 -3 37 -3 40 40 l3 43 98
3 97 3 0 29 0 30 -94 0 c-96 0 -111 5 -100 34 5 13 22 16 88 16 94 0 138 18
174 70 27 40 30 128 6 168 -38 64 -90 79 -244 72z m155 -95 c32 -31 32 -76 3
-109 -25 -27 -34 -29 -120 -27 l-58 1 0 80 0 80 75 0 c67 0 79 -3 100 -25z"/>
</g>
</svg>
